# xmcd
#
# Track frame offsets:
#	150
#	12220
#	28710
#	79579
#	95449
#	111339
#	124802
#	138383
#	149928
#	161895
#	182336
#	201646
#	222502
#	252265
#
# Disc length: 3527 seconds
#
# Revision: 1
# Processed by: cddbd v1.5.2PL0 Copyright (c) Steve Scherf et al.
# Submitted via: audiograbber 1.83.01
#
DISCID=d40dc50e
DTITLE=Royal Artillery Band - Keith Brion - Sousa, John Philip - Music for Wind
DTITLE=Band Volume 8
DYEAR=2010
DGENRE=Instrumental
TTITLE0=Sousa, John Philip - The High School Cadets
TTITLE1=Sousa, John Philip - The Northern Pines
TTITLE2=Sousa, John Philip - Selections from El Captitan
TTITLE3=Sousa, John Philip - Boy Scouts of America
TTITLE4=Sousa, John Philip - Crusader March
TTITLE5=Sousa, John Philip - Oh, Warrior Grim (from 'El Captitan')
TTITLE6=Sousa, John Philip - On the Campus
TTITLE7=Sousa, John Philip - Jack Tar
TTITLE8=Sousa, John Philip - Comrades of the Legion
TTITLE9=Sousa, John Philip - Pride of Pittsburgh
TTITLE10=Sousa, John Philip - At the King's Court - 1.Her Ladyship, the Countes
TTITLE10=s
TTITLE11=Sousa, John Philip - At the King's Court - 2.Her Grace, the Duchess
TTITLE12=Sousa, John Philip - At the King's Court - 3.Her Majesty, the Queen
TTITLE13=Sousa, John Philip - The Washingtomn Post
EXTD=
EXTT0=
EXTT1=
EXTT2=
EXTT3=
EXTT4=
EXTT5=
EXTT6=
EXTT7=
EXTT8=
EXTT9=
EXTT10=
EXTT11=
EXTT12=
EXTT13=
PLAYORDER=
